<svg width="16" height="16" viewBox="0 0 16 16" fill="none" xmlns="http://www.w3.org/2000/svg">
<path d="M3.27727 16C3.21324 16 3.14921 15.9664 3.08517 15.9328C2.98912 15.8655 2.92509 15.6975 2.9571 15.563L4.36585 10.0504L0.139616 6.45378C0.0115479 6.38656 -0.0204691 6.21849 0.0115479 6.08403C0.0435648 5.94958 0.171632 5.84874 0.2997 5.84874L5.74258 5.54622L7.69561 0.201681C7.75964 0.10084 7.88771 0 8.01578 0C8.14385 0 8.27191 0.10084 8.30393 0.201681L10.257 5.54622L15.6998 5.84874C15.8279 5.84874 15.956 5.94958 15.988 6.08403C16.02 6.21849 15.988 6.35294 15.8919 6.45378L11.6657 10.0504L13.0745 15.563C13.1065 15.6975 13.0745 15.8319 12.9464 15.9328C12.8503 16 12.6902 16.0336 12.5942 15.9328L8.01578 12.8403L3.43736 15.9328C3.37332 16 3.34131 16 3.27727 16Z" fill="#FFA41B"/>
</svg>
