<svg width="25" height="25" viewBox="0 0 25 25" fill="none" xmlns="http://www.w3.org/2000/svg">
<path d="M19.4538 4.35938H17.4556V3.34375C17.4556 3.07439 17.3503 2.81606 17.163 2.62559C16.9756 2.43513 16.7215 2.32813 16.4565 2.32812C16.1915 2.32813 15.9374 2.43513 15.75 2.62559C15.5626 2.81606 15.4574 3.07439 15.4574 3.34375V4.35938H9.46262V3.34375C9.46262 3.07439 9.35735 2.81606 9.16998 2.62559C8.98261 2.43513 8.72848 2.32813 8.46349 2.32812C8.19851 2.32813 7.94438 2.43513 7.757 2.62559C7.56963 2.81606 7.46437 3.07439 7.46437 3.34375V4.35938H5.46612C4.67117 4.35938 3.90878 4.68038 3.34666 5.25178C2.78454 5.82318 2.46875 6.59817 2.46875 7.40625V19.5938C2.46875 20.4018 2.78454 21.1768 3.34666 21.7482C3.90878 22.3196 4.67117 22.6406 5.46612 22.6406H19.4538C20.2488 22.6406 21.0112 22.3196 21.5733 21.7482C22.1354 21.1768 22.4512 20.4018 22.4512 19.5938V7.40625C22.4512 6.59817 22.1354 5.82318 21.5733 5.25178C21.0112 4.68038 20.2488 4.35938 19.4538 4.35938ZM20.453 19.5938C20.453 19.8631 20.3477 20.1214 20.1603 20.3119C19.973 20.5024 19.7188 20.6094 19.4538 20.6094H5.46612C5.20114 20.6094 4.94701 20.5024 4.75963 20.3119C4.57226 20.1214 4.467 19.8631 4.467 19.5938V12.4844H20.453V19.5938ZM20.453 10.4531H4.467V7.40625C4.467 7.13689 4.57226 6.87856 4.75963 6.6881C4.94701 6.49763 5.20114 6.39062 5.46612 6.39062H7.46437V7.40625C7.46437 7.67561 7.56963 7.93394 7.757 8.1244C7.94438 8.31487 8.19851 8.42188 8.46349 8.42188C8.72848 8.42188 8.98261 8.31487 9.16998 8.1244C9.35735 7.93394 9.46262 7.67561 9.46262 7.40625V6.39062H15.4574V7.40625C15.4574 7.67561 15.5626 7.93394 15.75 8.1244C15.9374 8.31487 16.1915 8.42188 16.4565 8.42188C16.7215 8.42188 16.9756 8.31487 17.163 8.1244C17.3503 7.93394 17.4556 7.67561 17.4556 7.40625V6.39062H19.4538C19.7188 6.39062 19.973 6.49763 20.1603 6.6881C20.3477 6.87856 20.453 7.13689 20.453 7.40625V10.4531Z" fill="#FDC913"/>
</svg>
