<svg width="18" height="18" viewBox="0 0 18 18" fill="none" xmlns="http://www.w3.org/2000/svg">
<path d="M11.2473 15.673C10.8927 14.6866 9.62283 11.3755 9.09633 10.0057C8.10363 10.669 6.99573 11.2972 5.93553 11.7409C5.60613 12.8929 4.95093 15.079 4.63413 15.3706C4.09053 15.8719 3.88533 15.8071 3.80163 15.1195C3.71793 14.4319 3.36513 12.2071 3.36513 12.2071C3.36513 12.2071 1.41933 11.11 0.809131 10.7959C0.198931 10.4818 0.208831 10.264 0.860431 9.91929C1.24023 9.71859 3.49473 9.84279 4.67823 9.92379C5.45313 9.06789 6.41613 8.22999 7.37193 7.51269C6.27843 6.54429 3.63693 4.20519 2.84133 3.53109C2.14293 2.93889 2.91243 2.81379 2.91243 2.81379C3.26343 2.75079 4.01223 2.69499 4.37763 2.80569C6.64923 3.49239 10.1754 4.66689 11.0043 4.94409L12.0501 4.20519C16.2819 1.20819 17.3484 1.87149 17.55 2.16219C17.7516 2.45289 18.0027 3.69309 13.7709 6.69099L12.7269 7.43169C12.7008 8.31369 12.5856 12.0676 12.447 14.4616C12.4245 14.8468 12.1167 15.5398 11.9385 15.8512C11.9376 15.8512 11.5578 16.5397 11.2473 15.673Z" fill="#FDE17D"/>
</svg>
