<svg width="25" height="25" viewBox="0 0 25 25" fill="none" xmlns="http://www.w3.org/2000/svg">
<path d="M22.6562 12.5C22.6562 6.89111 18.1089 2.34375 12.5 2.34375C6.89111 2.34375 2.34375 6.89111 2.34375 12.5C2.34375 18.1089 6.89111 22.6562 12.5 22.6562C18.1089 22.6562 22.6562 18.1089 22.6562 12.5Z" stroke="white" stroke-miterlimit="10"/>
<path d="M21.7558 8.40514C20.9717 8.41002 21.0488 9.8568 20.0718 9.17418C19.709 8.92125 19.4858 8.55358 19.0303 8.44176C18.6323 8.34411 18.2246 8.44567 17.8315 8.51354C17.3847 8.59069 16.855 8.62536 16.5161 8.96373C16.1885 9.28942 16.0151 9.72643 15.6665 10.0541C14.9922 10.6888 14.7075 11.3817 15.144 12.2792C15.5639 13.142 16.4424 13.6102 17.3901 13.5487C18.3213 13.4867 19.2886 12.9466 19.2617 14.2997C19.2519 14.7782 19.352 15.1102 19.499 15.555C19.6352 15.9652 19.626 16.3627 19.6572 16.786C19.7148 17.577 19.8603 18.4637 20.2529 19.1625L20.9853 18.1293C21.0757 18.0013 21.2646 17.8221 21.3095 17.6713C21.3891 17.4042 21.2324 16.9452 21.2143 16.6459C21.1963 16.3465 21.2051 16.0433 21.1592 15.744C21.0947 15.3246 20.8467 14.9315 20.8125 14.517C20.7495 13.745 20.8906 13.1288 20.2959 12.4833C19.7217 11.8607 18.8799 11.7113 18.0757 11.8378C17.6704 11.9012 16.039 12.162 16.6938 11.2357C16.8232 11.0536 17.0493 10.9042 17.1948 10.7308C17.3213 10.5799 17.4311 10.3026 17.5796 10.1849C17.728 10.0673 18.4096 9.932 18.605 9.99206C18.8003 10.0521 19.0039 10.3339 19.1733 10.4589C19.4864 10.6946 19.8517 10.8514 20.2383 10.9159C20.9052 11.0135 22.2998 10.6258 22.289 9.77038C22.2871 9.36022 21.9062 8.78893 21.7558 8.40514Z" fill="white"/>
<path d="M14.0362 15.4438C13.776 14.3481 12.2872 13.9819 11.4845 13.3877C11.023 13.0459 10.6124 12.5181 10.0064 12.4751C9.72715 12.4551 9.49326 12.5156 9.21641 12.4439C8.9625 12.3784 8.76328 12.2417 8.49277 12.2773C7.9874 12.3438 7.66855 12.8838 7.12559 12.8105C6.61045 12.7412 6.07969 12.1387 5.9625 11.648C5.81211 11.0171 6.31113 10.8125 6.8458 10.7564C7.06894 10.7329 7.31943 10.7075 7.53379 10.7891C7.81602 10.894 7.94932 11.1704 8.20273 11.3101C8.67783 11.5703 8.77402 11.1543 8.70127 10.7324C8.59238 10.1006 8.46543 9.84277 9.02891 9.4082C9.41953 9.1084 9.75352 8.8916 9.69102 8.35303C9.65391 8.03662 9.48057 7.89356 9.64219 7.57861C9.76475 7.33887 10.1012 7.12256 10.3204 6.97949C10.8863 6.61035 12.7447 6.6377 11.9854 5.60449C11.7623 5.30127 11.3507 4.75928 10.9601 4.68506C10.4718 4.59277 10.255 5.1377 9.91465 5.37793C9.56309 5.62647 8.87852 5.90869 8.52646 5.52441C8.05283 5.00732 8.84043 4.8374 9.01475 4.47656C9.18906 4.11572 8.61094 3.43359 8.30137 3.26074L6.8458 4.89307C6.80399 5.16644 6.81854 5.44547 6.88857 5.713C6.95861 5.98054 7.08263 6.23091 7.25303 6.44873C7.54258 6.82129 8.00352 6.94092 8.02451 7.44971C8.04502 7.93799 7.96885 8.18799 7.64951 8.53125C7.51133 8.67774 7.41367 8.88574 7.27305 9.02295C7.10068 9.19043 7.16465 9.13916 6.89561 9.18506C6.38975 9.27051 5.95908 9.40235 5.47031 9.53711C4.65586 9.76221 4.58066 8.43164 4.20957 7.90967L2.98887 8.89551C2.97568 9.05713 3.18906 9.35449 3.24717 9.53027C3.58066 10.5347 4.25351 11.3115 4.68809 12.2725C5.1456 13.29 6.37412 13.0078 6.9166 13.8994C7.39805 14.6904 6.88389 15.6919 7.24424 16.52C7.50596 17.1211 8.12314 17.2524 8.54893 17.6919C8.98398 18.1357 8.97471 18.7432 9.04111 19.3208C9.116 20.0002 9.23755 20.6737 9.40488 21.3364C9.46396 21.5654 9.51816 21.8682 9.6749 22.0571C9.78232 22.187 10.151 22.2988 10.0021 22.3418C10.2101 22.376 10.5807 22.5703 10.754 22.4277C10.9825 22.2402 10.9215 21.6631 10.961 21.4023C11.0797 20.626 11.4684 19.8667 11.9928 19.2856C12.5108 18.7124 13.2208 18.3242 13.6583 17.6743C14.0846 17.0405 14.213 16.1855 14.0362 15.4438ZM12.4059 16.729C12.1129 17.252 11.4605 17.6021 11.0411 18.0176C10.9273 18.1304 10.6852 18.521 10.5426 18.4365C10.4405 18.376 10.4059 17.8691 10.3683 17.7529C10.1743 17.1677 9.80401 16.6569 9.3082 16.2905C9.15537 16.1748 8.77646 16.0244 8.68906 15.8657C8.59141 15.6934 8.6793 15.2866 8.68271 15.0991C8.68809 14.8257 8.56357 14.3711 8.63096 14.1226C8.70908 13.8359 8.55869 14.0088 8.81504 13.9522C8.95029 13.9219 9.50889 14.02 9.67734 14.0552C9.94492 14.1108 10.0924 14.2773 10.3033 14.4458C10.858 14.8906 11.4688 15.2349 12.0904 15.5757C12.5719 15.8423 12.7135 16.1797 12.4059 16.729Z" fill="white"/>
<path d="M9.00635 3.2761C9.23779 3.50217 9.45557 3.76975 9.80078 3.79221C10.1274 3.81418 10.4355 3.63743 10.7207 3.85959C11.0371 4.10374 11.2651 4.41282 11.6851 4.48899C12.0913 4.56272 12.5215 4.32542 12.6221 3.90989C12.7197 3.51389 12.5093 3.08323 12.4966 2.68577C12.4966 2.63059 12.5264 2.38547 12.4883 2.34397C12.46 2.31272 12.2236 2.34788 12.1875 2.34885C11.9229 2.35667 11.6589 2.37489 11.3955 2.40354C10.4355 2.50745 9.49525 2.74834 8.60352 3.11887C8.72217 3.2009 8.87109 3.23362 9.00635 3.2761Z" fill="white"/>
<path d="M17.4028 6.01858C17.8173 6.01858 18.2382 5.83303 18.1045 5.35354C17.9922 4.95169 17.8007 4.51565 17.3349 4.73245C17.0385 4.87014 16.6186 5.22073 16.5839 5.56839C16.5444 5.96292 17.1264 6.01858 17.4028 6.01858Z" fill="white"/>
<path d="M17.0717 8.11742C17.495 8.37083 18.1229 8.25169 18.4423 7.88988C18.6918 7.60667 18.8387 7.11497 19.2875 7.11546C19.485 7.11505 19.6748 7.1924 19.8158 7.3308C20.0013 7.52269 19.9647 7.70287 20.0043 7.9431C20.0926 8.48265 20.6713 7.97386 20.8221 7.76488C20.9198 7.62865 21.0521 7.4265 21.0077 7.24925C20.9667 7.08372 20.7733 6.90746 20.6874 6.7556C20.4364 6.31615 20.2299 5.80492 19.8539 5.44994C19.4921 5.10814 19.0472 5.14769 18.704 5.50267C18.4227 5.79564 18.0961 6.02757 17.9037 6.38402C17.7679 6.63451 17.6151 6.75413 17.3402 6.81908C17.1888 6.85472 17.016 6.8679 16.889 6.96947C16.5355 7.24779 16.7367 7.91624 17.0717 8.11742Z" fill="white"/>
</svg>
