<svg width="25" height="25" viewBox="0 0 25 25" fill="none" xmlns="http://www.w3.org/2000/svg">
<path d="M12.1688 6.28906C12.4443 6.28906 12.7171 6.34423 12.9717 6.45141C13.2263 6.5586 13.4576 6.7157 13.6524 6.91375C13.8472 7.1118 14.0018 7.34692 14.1072 7.60568C14.2127 7.86445 14.2669 8.14179 14.2669 8.42188C14.2669 8.70196 14.2127 8.9793 14.1072 9.23807C14.0018 9.49683 13.8472 9.73195 13.6524 9.93C13.4576 10.1281 13.2263 10.2852 12.9717 10.3923C12.7171 10.4995 12.4443 10.5547 12.1688 10.5547C11.6123 10.5547 11.0786 10.33 10.6851 9.93C10.2917 9.53002 10.0706 8.98753 10.0706 8.42188C10.0706 7.85622 10.2917 7.31373 10.6851 6.91375C11.0786 6.51377 11.6123 6.28906 12.1688 6.28906ZM12.1688 15.4297C15.1362 15.4297 18.2634 16.9125 18.2634 17.5625V18.6797H6.07412V17.5625C6.07412 16.9125 9.20137 15.4297 12.1688 15.4297ZM12.1688 4.35938C9.96071 4.35938 8.17228 6.17734 8.17228 8.42188C8.17228 10.6664 9.96071 12.4844 12.1688 12.4844C14.3768 12.4844 16.1653 10.6664 16.1653 8.42188C16.1653 6.17734 14.3768 4.35938 12.1688 4.35938ZM12.1688 13.5C9.50111 13.5 4.17578 14.8609 4.17578 17.5625V20.6094H20.1618V17.5625C20.1618 14.8609 14.8364 13.5 12.1688 13.5Z" fill="#FDC913"/>
</svg>
