<svg width="18" height="16" viewBox="0 0 18 16" fill="none" xmlns="http://www.w3.org/2000/svg">
<path d="M11.2473 14.673C10.8927 13.6866 9.62283 10.3755 9.09633 9.00569C8.10363 9.66899 6.99573 10.2972 5.93553 10.7409C5.60613 11.8929 4.95093 14.079 4.63413 14.3706C4.09053 14.8719 3.88533 14.8071 3.80163 14.1195C3.71793 13.4319 3.36513 11.2071 3.36513 11.2071C3.36513 11.2071 1.41933 10.11 0.809131 9.79589C0.198931 9.48179 0.208831 9.26399 0.860431 8.91929C1.24023 8.71859 3.49473 8.84279 4.67823 8.92379C5.45313 8.06789 6.41613 7.22999 7.37193 6.51269C6.27843 5.54429 3.63693 3.20519 2.84133 2.53109C2.14293 1.93889 2.91243 1.81379 2.91243 1.81379C3.26343 1.75079 4.01223 1.69499 4.37763 1.80569C6.64923 2.49239 10.1754 3.66689 11.0043 3.94409L12.0501 3.20519C16.2819 0.208187 17.3484 0.871487 17.55 1.16219C17.7516 1.45289 18.0027 2.69309 13.7709 5.69099L12.7269 6.43169C12.7008 7.31369 12.5856 11.0676 12.447 13.4616C12.4245 13.8468 12.1167 14.5398 11.9385 14.8512C11.9376 14.8512 11.5578 15.5397 11.2473 14.673Z" fill="#FDE17D"/>
</svg>
