<svg width="25" height="25" viewBox="0 0 25 25" fill="none" xmlns="http://www.w3.org/2000/svg">
<path d="M18.0627 4.45078L15.5349 6.42109L16.4441 9.52891L13.8164 7.69063L11.1887 9.52891L12.0979 6.42109L9.57014 4.45078L12.7573 4.35938L13.8164 1.3125L14.8755 4.35938L18.0627 4.45078ZM21.5596 11.4688L19.9211 12.7383L20.5105 14.7492L18.812 13.5609L17.1135 14.7492L17.703 12.7383L16.0644 11.4688L18.1226 11.418L18.812 9.4375L19.5014 11.418L21.5596 11.4688ZM19.2816 16.4961C20.1109 16.4148 21.0001 17.6133 20.4706 18.375C20.1509 18.832 19.8112 19.2586 19.3915 19.6648C15.4849 23.6562 9.1605 23.6562 5.26391 19.6648C1.35734 15.7039 1.35734 9.26484 5.26391 5.30391C5.66356 4.89766 6.08319 4.53203 6.5328 4.20703C7.28214 3.66875 8.46111 4.57266 8.38118 5.41563C8.11142 8.32031 9.07057 11.3367 11.2686 13.5609C12.3073 14.6225 13.5649 15.4364 14.9506 15.944C16.3363 16.4516 17.8155 16.6401 19.2816 16.4961ZM17.6431 18.5477C14.71 18.3762 11.9391 17.1232 9.84989 15.0234C7.68179 12.7992 6.52281 9.94531 6.36295 7.08125C3.55541 10.2703 3.66532 15.1656 6.67268 18.2328C9.69003 21.2898 14.5058 21.4016 17.6431 18.5477Z" fill="#FDC913"/>
</svg>
