<svg width="36" height="36" viewBox="0 0 36 36" fill="none" xmlns="http://www.w3.org/2000/svg">
<path d="M29.879 0.0410156H5.2004C2.36274 0.0410156 0.0410156 2.36274 0.0410156 5.2004V29.8816C0.0410156 32.7193 2.36274 35.041 5.2004 35.041H29.8816C32.7193 35.041 35.041 32.7193 35.041 29.8816V5.2004C35.0384 2.36274 32.7193 0.0410156 29.879 0.0410156ZM29.5476 18.7219H25.3942V33.7486H19.1798V18.7219H16.0712V13.5418H19.1798V10.4333C19.1798 6.20777 20.934 3.69386 25.9257 3.69386H30.0751V8.8726H27.4799C25.54 8.8726 25.411 9.59878 25.411 10.9493L25.3942 13.5418H30.0957L29.5463 18.7219H29.5476Z" fill="#4AA5D1"/>
</svg>
