<svg width="35" height="36" viewBox="0 0 35 36" fill="none" xmlns="http://www.w3.org/2000/svg">
<path d="M17.5 7.52502C11.8203 7.52502 7.20312 12.1089 7.19531 17.7476C7.19531 19.6789 7.74219 21.5637 8.77344 23.1847L9.01562 23.5725L7.97656 27.342L11.875 26.3259L12.25 26.5509C13.8281 27.4816 15.6406 27.978 17.4922 27.978H17.5C23.1719 27.978 27.9141 23.3941 27.9141 17.7554C27.9141 15.0252 26.7266 12.4579 24.7812 10.5266C22.8281 8.58761 20.25 7.52502 17.5 7.52502ZM23.5547 22.1376C23.2969 22.8589 22.0625 23.5105 21.4688 23.5958C20.4844 23.7431 19.7188 23.6656 17.7578 22.8279C14.6562 21.4939 12.625 18.3914 12.4688 18.1897C12.3125 17.9881 11.2031 16.5222 11.2031 15.0097C11.2031 13.4973 12 12.7527 12.2891 12.4424C12.5703 12.1322 12.9062 12.0546 13.1172 12.0546C13.3203 12.0546 13.5312 12.0546 13.7109 12.0624C13.8984 12.0701 14.1562 11.9926 14.4062 12.5898C14.6641 13.2025 15.2812 14.715 15.3594 14.8701C15.4375 15.0252 15.4922 15.2036 15.3828 15.4053C14.7891 16.5842 14.1562 16.5377 14.4766 17.0806C15.6719 19.1205 16.8672 19.8263 18.6875 20.7338C19 20.8889 19.1797 20.8656 19.3594 20.6562C19.5391 20.4545 20.1328 19.7565 20.3359 19.454C20.5391 19.1437 20.75 19.198 21.0312 19.2989C21.3125 19.3997 22.8359 20.1443 23.1484 20.2994C23.4609 20.4545 23.6641 20.5321 23.7422 20.6562C23.8125 20.8036 23.8125 21.4241 23.5547 22.1376ZM31.25 0.482422H3.75C1.67969 0.482422 0 2.15 0 4.20538V31.5071C0 33.5624 1.67969 35.23 3.75 35.23H31.25C33.3203 35.23 35 33.5624 35 31.5071V4.20538C35 2.15 33.3203 0.482422 31.25 0.482422ZM17.4922 30.0489C15.4141 30.0489 13.375 29.5292 11.5703 28.552L5 30.2661L6.75781 23.8905C5.67188 22.029 5.10156 19.9116 5.10156 17.7399C5.10938 10.961 10.6641 5.44636 17.4922 5.44636C20.8047 5.44636 23.9141 6.72613 26.2578 9.05298C28.5938 11.3798 30 14.4668 30 17.7554C30 24.5343 24.3203 30.0489 17.4922 30.0489Z" fill="#4AA5D1"/>
</svg>
